<?xml version="1.0" encoding="UTF-8"?><svg id="Livello_5" xmlns="http://www.w3.org/2000/svg" viewBox="0 0 1024 512"><defs><style>.cls-1{fill:#12181f;}.cls-2{fill:#26efb1;}</style></defs><path class="cls-1" d="m246.83,287.42c-9.56-6.64-20.05-11.73-31.47-15.27-11.43-3.53-22.54-6.13-33.34-7.79-7.9-1.25-15.27-2.49-22.12-3.74-6.85-1.25-12.88-2.7-18.07-4.36-5.2-1.66-9.35-3.84-12.46-6.54-3.12-2.7-4.67-6.33-4.67-10.91,0-2.49.83-4.67,2.49-6.54,1.66-1.87,4.26-3.32,7.79-4.36,3.53-1.03,7.79-1.56,12.78-1.56,8.73,0,17.45,1.87,26.18,5.61,8.73,3.74,17.03,7.48,24.93,11.22,7.89,3.74,15.16,5.61,21.81,5.61,5.4,0,10.69-1.97,15.89-5.92,5.19-3.94,10.28-9.86,15.27-17.76,9.13-12.87,13.5-25.24,13.09-37.08-.42-11.84-8.32-21.08-23.68-27.73-7.48-3.32-14.86-6.33-22.13-9.04-7.27-2.7-14.55-4.88-21.81-6.54-7.27-1.66-14.44-2.9-21.5-3.74-7.07-.83-14.13-1.25-21.19-1.25-28.67,0-52.77,3.74-72.29,11.22-19.53,7.48-34.28,18.49-44.25,33.03-9.97,14.55-14.96,32.62-14.96,54.22,0,16.2,2.18,29.92,6.54,41.13,4.36,11.22,10.18,20.78,17.45,28.67,7.26,7.9,15.47,14.24,24.62,19.01,9.13,4.78,18.48,8.63,28.04,11.53,7.48,2.49,14.74,4.58,21.81,6.23,7.06,1.66,13.71,3.12,19.94,4.36,6.23,1.25,11.73,2.6,16.52,4.05,4.77,1.46,8.51,3.22,11.22,5.3,2.7,2.08,4.05,4.78,4.05,8.1s-1.98,5.82-5.92,7.48c-3.95,1.66-9.87,2.49-17.76,2.49-8.72,0-16.93-1.56-24.62-4.67-7.69-3.12-15.06-6.64-22.12-10.6-7.07-3.94-14.13-7.48-21.19-10.59-7.07-3.12-14.33-4.67-21.81-4.67-5.4,0-10.08,1.04-14.02,3.12-3.95,2.08-7.38,5.2-10.28,9.35-4.99,7.07-9.14,13.71-12.46,19.94-3.33,6.23-5.92,11.95-7.79,17.14-1.87,5.2-2.8,9.87-2.8,14.02,0,9.14,4.36,17.25,13.09,24.31,8.72,7.07,19.84,13.19,33.34,18.39,13.5,5.19,27.42,9.13,41.76,11.84,14.33,2.7,27.31,4.05,38.95,4.05,45.7,0,80.29-9.14,103.77-27.42,23.47-18.28,35.21-45.08,35.21-80.39,0-18.7-2.91-33.86-8.73-45.49-5.82-11.63-13.51-20.77-23.06-27.42Z"/><path class="cls-1" d="m573.12,273.98c-.04,58.57.67,123.23.27,131.85-1.45,38.68,11.45,57.84,56.09,56.71,44.86,1.33,57.74-17.41,56.71-56.09-.39-8.95.29-73.84.22-132.47-17.7,6.38-36.77,9.87-56.64,9.87s-38.94-3.49-56.64-9.87Z"/><path class="cls-1" d="m464.55,143.71c-7.36-.98-15.32-1.5-23.91-1.5-16.62,0-34.38,3.43-53.28,10.28-18.91,6.86-36.57,16.93-52.97,30.23-16.42,13.3-29.82,30.02-40.2,50.17-10.39,20.16-15.58,43.53-15.58,70.11s5.19,50.7,15.58,71.05c10.38,20.36,23.89,37.3,40.51,50.79,16.61,13.51,34.37,23.68,53.28,30.54,18.9,6.86,36.87,10.28,53.91,10.28s30.95-1.87,43-5.61c12.05-3.74,21.71-7.58,28.98-11.53,7.26-3.94,11.53-6.33,12.78-7.17,12.05-7.48,20.98-15.27,26.8-23.37,5.81-8.1,8.2-16.83,7.17-26.18-1.04-9.35-5.92-19.42-14.65-30.23-9.14-11.63-17.45-20.04-24.93-25.24-7.48-5.19-14.75-7.79-21.81-7.79-5.4,0-10.7,1.46-15.89,4.36-5.2,2.91-10.7,6.03-16.51,9.35-.42,0-1.67.73-3.74,2.18-2.08,1.46-5.09,2.8-9.04,4.05-3.95,1.25-8.83,1.87-14.65,1.87-7.9,0-15.27-2.07-22.12-6.23-6.86-4.15-12.37-9.76-16.51-16.83-4.16-7.06-6.23-14.96-6.23-23.68s2.07-16.52,6.23-23.37c4.15-6.86,9.76-12.36,16.83-16.52,7.06-4.15,14.74-6.23,23.06-6.23,7.06,0,12.98,1.15,17.76,3.43,4.77,2.29,9.24,4.89,13.4,7.79,4.15,2.91,8.72,5.51,13.71,7.79,4.99,2.29,10.8,3.43,17.45,3.43,12.15,0,24.3-7.54,36.45-22.61-39.05-25.12-67.02-66.02-74.86-113.62Z"/><path class="cls-2" d="m714.11,116.4c0,25.64-11.53,48.65-29.64,64.13-14.74,12.6-33.84,20.22-54.71,20.22s-40-7.64-54.74-20.25c-18.1-15.48-29.62-38.47-29.62-64.11,0-46.51,37.84-84.35,84.35-84.35s84.35,37.84,84.35,84.35Z"/><path class="cls-1" d="m1009.01,175.87c-1.66-8.72-6.34-15.89-14.02-21.5-7.69-5.61-20.88-8.41-39.57-8.41s-32.51,2.91-41.45,8.72c-6.73,4.38-10.8,10.05-12.22,17.01-1.68-1.61-3.63-3.34-5.85-5.17-6.03-4.99-13.93-9.55-23.68-13.71-9.77-4.15-21.72-6.23-35.84-6.23-18.7,0-36.57,4.26-53.6,12.78-17.04,8.52-32.41,20.16-46.12,34.9-13.71,14.75-24.52,31.47-32.41,50.17-7.9,18.7-11.84,38.23-11.84,58.58s3.94,40.62,11.84,59.52c7.89,18.91,18.59,35.84,32.1,50.79,13.5,14.96,28.87,26.7,46.12,35.21,17.24,8.51,35.21,12.78,53.91,12.78,14.54,0,26.8-1.98,36.77-5.92,9.97-3.94,17.97-8.31,23.99-13.09,1.7-1.35,3.23-2.62,4.62-3.82,1.81,4.86,5.67,9.35,11.59,13.48,8.93,6.23,22.75,9.35,41.44,9.35s32.5-2.71,40.2-8.1c7.68-5.4,12.36-12.46,14.02-21.19,1.66-8.72,2.49-17.66,2.49-26.8v-202.55c0-9.13-.84-18.07-2.49-26.8Zm-119.97,149.88c-3.95,6.85-9.14,12.37-15.58,16.52-6.45,4.16-13.61,6.23-21.5,6.23-8.32,0-16-2.07-23.06-6.23-7.07-4.15-12.78-9.55-17.14-16.2-4.36-6.64-6.54-13.92-6.54-21.81,0-8.31,2.07-15.89,6.23-22.75,4.15-6.86,9.66-12.36,16.52-16.52,6.86-4.15,14.43-6.23,22.75-6.23s15.78,2.08,22.44,6.23c6.64,4.16,11.94,9.56,15.89,16.2,3.94,6.65,5.92,14.13,5.92,22.44s-1.98,15.27-5.92,22.13Z"/></svg>