<?xml version="1.0" encoding="UTF-8"?><svg id="Logo-completo" xmlns="http://www.w3.org/2000/svg" viewBox="0 0 1024 512"><defs><style>.cls-1{fill:#fff;}.cls-2{fill:#26efb1;}</style></defs><path class="cls-1" d="m247.63,287.31c-9.53-6.62-19.99-11.7-31.38-15.22-11.4-3.52-22.48-6.11-33.24-7.77-7.87-1.24-15.22-2.49-22.06-3.73-6.83-1.24-12.84-2.69-18.02-4.35-5.18-1.65-9.32-3.82-12.43-6.52-3.11-2.69-4.66-6.31-4.66-10.87,0-2.49.83-4.66,2.49-6.52,1.65-1.86,4.24-3.31,7.77-4.35,3.51-1.03,7.77-1.55,12.74-1.55,8.7,0,17.4,1.86,26.1,5.59,8.7,3.73,16.98,7.46,24.85,11.18,7.86,3.73,15.12,5.59,21.75,5.59,5.38,0,10.66-1.96,15.85-5.9,5.17-3.93,10.25-9.83,15.22-17.71,9.11-12.83,13.46-25.16,13.05-36.97-.42-11.81-8.29-21.02-23.61-27.65-7.46-3.31-14.82-6.31-22.06-9.01-7.25-2.69-14.5-4.87-21.75-6.52-7.25-1.65-14.4-2.89-21.44-3.73-7.05-.83-14.09-1.24-21.13-1.24-28.58,0-52.61,3.73-72.08,11.18-19.47,7.46-34.17,18.44-44.11,32.93-9.94,14.5-14.91,32.52-14.91,54.06,0,16.16,2.17,29.83,6.52,41.01s10.15,20.72,17.4,28.58c7.24,7.87,15.43,14.19,24.54,18.95,9.11,4.77,18.43,8.6,27.96,11.5,7.46,2.49,14.7,4.56,21.75,6.21,7.04,1.66,13.67,3.11,19.88,4.35,6.21,1.24,11.7,2.59,16.47,4.04,4.76,1.46,8.48,3.21,11.18,5.28,2.69,2.08,4.04,4.77,4.04,8.08s-1.97,5.81-5.9,7.46c-3.94,1.66-9.84,2.49-17.71,2.49-8.7,0-16.88-1.55-24.54-4.66-7.67-3.11-15.02-6.62-22.06-10.56-7.05-3.93-14.09-7.46-21.13-10.56-7.05-3.11-14.29-4.66-21.75-4.66-5.39,0-10.05,1.04-13.98,3.11-3.94,2.08-7.36,5.18-10.25,9.32-4.97,7.05-9.12,13.67-12.43,19.88-3.32,6.21-5.9,11.91-7.77,17.09-1.86,5.18-2.8,9.84-2.8,13.98,0,9.12,4.35,17.19,13.05,24.23,8.7,7.05,19.78,13.15,33.24,18.33,13.46,5.18,27.34,9.11,41.63,11.81,14.29,2.69,27.23,4.04,38.83,4.04,45.56,0,80.05-9.12,103.45-27.34,23.4-18.22,35.11-44.94,35.11-80.15,0-18.64-2.9-33.76-8.7-45.36-5.8-11.59-13.47-20.71-22.99-27.34Z"/><path class="cls-1" d="m572.93,273.91c-.04,58.39.67,122.86.27,131.45-1.44,38.56,11.41,57.67,55.92,56.54,44.73,1.33,57.57-17.36,56.54-55.92-.39-8.92.28-73.62.22-132.07-17.65,6.36-36.66,9.84-56.47,9.84s-38.83-3.48-56.47-9.84Z"/><path class="cls-1" d="m464.69,144.03c-7.34-.98-15.27-1.49-23.83-1.49-16.57,0-34.28,3.42-53.12,10.25-18.85,6.83-36.46,16.88-52.81,30.14-16.37,13.26-29.73,29.93-40.08,50.02-10.36,20.1-15.53,43.4-15.53,69.9s5.18,50.54,15.53,70.83c10.35,20.3,23.82,37.18,40.39,50.64,16.56,13.47,34.27,23.61,53.12,30.45,18.85,6.84,36.76,10.25,53.75,10.25s30.85-1.86,42.87-5.59c12.01-3.73,21.64-7.55,28.89-11.5,7.24-3.93,11.5-6.31,12.74-7.15,12.01-7.46,20.91-15.22,26.72-23.3,5.8-8.08,8.17-16.78,7.15-26.1-1.04-9.32-5.9-19.36-14.6-30.13-9.12-11.59-17.4-19.98-24.85-25.17-7.46-5.17-14.71-7.77-21.75-7.77-5.39,0-10.67,1.46-15.84,4.35-5.18,2.9-10.67,6.01-16.47,9.32-.42,0-1.66.73-3.73,2.17-2.08,1.46-5.08,2.8-9.01,4.04-3.94,1.24-8.81,1.86-14.6,1.86-7.87,0-15.22-2.07-22.06-6.21-6.83-4.14-12.33-9.73-16.47-16.78-4.15-7.04-6.21-14.91-6.21-23.61s2.07-16.47,6.21-23.3c4.14-6.84,9.73-12.32,16.78-16.47,7.04-4.14,14.7-6.21,22.99-6.21,7.04,0,12.94,1.15,17.71,3.42,4.76,2.28,9.21,4.87,13.36,7.77,4.14,2.9,8.7,5.5,13.67,7.77,4.97,2.28,10.77,3.42,17.4,3.42,12.11,0,24.22-7.51,36.34-22.55-38.93-25.05-66.82-65.82-74.64-113.28Z"/><path class="cls-2" d="m713.51,116.81c0,25.57-11.49,48.5-29.55,63.94-14.7,12.56-33.74,20.16-54.55,20.16s-39.88-7.62-54.57-20.19c-18.05-15.44-29.53-38.36-29.53-63.91,0-46.37,37.73-84.1,84.1-84.1s84.1,37.73,84.1,84.1Z"/><path class="cls-1" d="m1007.51,176.09c-1.66-8.7-6.32-15.84-13.98-21.44-7.67-5.59-20.81-8.39-39.45-8.39s-32.42,2.9-41.32,8.7c-6.7,4.37-10.77,10.02-12.19,16.96-1.68-1.61-3.62-3.33-5.83-5.16-6.01-4.97-13.88-9.52-23.61-13.67-9.74-4.14-21.65-6.21-35.73-6.21-18.64,0-36.46,4.25-53.44,12.74-16.99,8.49-32.31,20.1-45.98,34.8-13.67,14.71-24.45,31.38-32.31,50.02-7.87,18.64-11.81,38.12-11.81,58.41s3.93,40.5,11.81,59.34c7.86,18.85,18.53,35.73,32,50.64,13.46,14.91,28.79,26.62,45.98,35.11,17.18,8.49,35.11,12.74,53.75,12.74,14.49,0,26.72-1.97,36.66-5.9,9.94-3.93,17.91-8.28,23.92-13.05,1.7-1.35,3.22-2.61,4.6-3.81,1.81,4.84,5.65,9.32,11.55,13.44,8.9,6.21,22.68,9.32,41.32,9.32s32.41-2.7,40.08-8.08c7.66-5.38,12.32-12.43,13.98-21.13,1.65-8.7,2.49-17.6,2.49-26.72v-201.94c0-9.11-.84-18.02-2.49-26.72Zm-119.61,149.43c-3.94,6.83-9.12,12.33-15.53,16.47-6.43,4.14-13.57,6.21-21.44,6.21-8.29,0-15.95-2.07-22.99-6.21-7.05-4.14-12.74-9.52-17.09-16.16-4.35-6.62-6.52-13.87-6.52-21.75,0-8.28,2.07-15.84,6.21-22.68,4.14-6.84,9.63-12.32,16.47-16.47,6.84-4.14,14.39-6.21,22.68-6.21s15.74,2.08,22.37,6.21c6.62,4.14,11.9,9.53,15.84,16.15,3.93,6.63,5.9,14.09,5.9,22.37s-1.97,15.22-5.9,22.06Z"/></svg>