<?xml version="1.0" encoding="UTF-8"?><svg id="Livello_1" xmlns="http://www.w3.org/2000/svg" xmlns:xlink="http://www.w3.org/1999/xlink" viewBox="0 0 256 256"><defs><style>.cls-1{fill:#12181f;}.cls-2{fill:url(#Sfumatura_senza_nome_16);}.cls-3{fill:url(#Sfumatura_senza_nome_17);}</style><linearGradient id="Sfumatura_senza_nome_17" x1="197.19" y1="157.95" x2="147.45" y2="108.9" gradientTransform="translate(-55.23 121.73) rotate(-44.6)" gradientUnits="userSpaceOnUse"><stop offset=".14" stop-color="#26efb1"/><stop offset=".94" stop-color="#1b6355"/></linearGradient><linearGradient id="Sfumatura_senza_nome_16" x1="39.16" y1="135.46" x2="145.59" y2="135.46" gradientTransform="translate(-55.09 122.99) rotate(-45)" gradientUnits="userSpaceOnUse"><stop offset=".15" stop-color="#26efb1"/><stop offset="1" stop-color="#1b6355"/></linearGradient></defs><circle class="cls-1" cx="128" cy="128" r="128"/><path class="cls-3" d="m101.31,128.86c2.61-12.29,12.17-21.71,23.26-26.68,4.99-2.26,10.39-3.36,15.86-4.14,8.25-1.36,16.35-3.3,23.56-6.54,0,0,.07-.02.07-.02v.04c.02.05-.2.23-.24.29.06-.06.29-.21.35-.26,7.72-5.58,15.31-12.3,17.45-22.17.35-1.16.5-2.8.74-3.99.04-.28.07-.57.11-.85.18-1.65,2.13-2.48,3.38-1.39,2.24,1.94,4.18,4.25,5.71,6.78,8.9,14.88,3.58,33.12-6.44,44.36-10.09,9.98-24.79,13.92-39.04,13.4-1.15-.08-3.25-.12-4.38-.32-13.77-2.11-26.95-.74-40.4,1.52h0Z"/><path class="cls-2" d="m128.5,100.69c-2.35,13.42-3.82,26.59-1.8,40.36.17,1.14.23,3.21.28,4.38.42,14.24-3.63,28.9-13.68,38.92-11.31,9.93-29.61,15.12-44.43,6.12-2.51-1.55-4.82-3.5-6.74-5.76-1.08-1.26-.23-3.21,1.42-3.38.29-.03.57-.06.86-.1,1.21-.21,2.85-.4,4-.71,9.89-2.08,16.67-9.61,22.3-17.29,0,0,.23-.29.23-.29,0-.01.03-.04.04-.05,0,0-.04.04-.04.04l-.19.18s-.04,0-.06.02c0,0-.04,0-.04,0,0,0,.02-.07.02-.07,0,0,.04-.14.04-.14,3.3-7.12,5.23-15.18,6.66-23.36.82-5.46,1.96-10.84,4.26-15.82,5.06-11.04,14.55-20.53,26.86-23.05h0Z"/></svg>